<svg xmlns="http://www.w3.org/2000/svg" viewBox="0 0 512 512">
  <rect width="512" height="512" rx="80" fill="#0f0f1a"/>
  <!-- Container boxes -->
  <rect x="100" y="100" width="200" height="120" rx="16" fill="#1a1a2e" stroke="#ff6b35" stroke-width="6"/>
  <rect x="120" y="120" width="160" height="16" rx="6" fill="#ff6b35" opacity="0.8"/>
  <rect x="120" y="150" width="100" height="10" rx="4" fill="#e0e0e0" opacity="0.3"/>
  <rect x="120" y="170" width="130" height="10" rx="4" fill="#e0e0e0" opacity="0.25"/>
  <rect x="120" y="190" width="80" height="10" rx="4" fill="#2ecc71" opacity="0.6"/>
  <!-- Container boxes bottom row -->
  <rect x="212" y="260" width="200" height="120" rx="16" fill="#1a1a2e" stroke="#2a2a3e" stroke-width="6"/>
  <rect x="232" y="280" width="160" height="16" rx="6" fill="#e0e0e0" opacity="0.4"/>
  <rect x="232" y="310" width="90" height="10" rx="4" fill="#e0e0e0" opacity="0.25"/>
  <rect x="232" y="330" width="110" height="10" rx="4" fill="#e0e0e0" opacity="0.2"/>
  <rect x="232" y="350" width="70" height="10" rx="4" fill="#e74c3c" opacity="0.5"/>
  <!-- Status dots -->
  <circle cx="330" cy="165" r="8" fill="#2ecc71"/>
  <circle cx="350" cy="165" r="8" fill="#2ecc71"/>
  <circle cx="370" cy="165" r="8" fill="#ff6b35"/>
  <!-- Heartbeat line -->
  <polyline points="100,420 140,420 160,380 180,420 200,420 220,390 240,420 260,420 280,400 300,420 320,420 340,380 360,420 412,420" fill="none" stroke="#ff6b35" stroke-width="4" stroke-linecap="round" stroke-linejoin="round" opacity="0.7"/>
</svg>
